# xmcd
#
# Track frame offsets: 
#        150
#        25058
#        41948
#        62317
#        93213
#        106980
#        129721
#        160528
#        199453
#        216425
#        252499
#        278586
#
# Disc length: 3985 seconds
#
# Revision: 1
# Processed by: cddbd v1.5.2PL0 Copyright (c) Steve Scherf et al.
# Submitted via: ExactAudioCopy v0.99pb5
#
DISCID=a80f8f0c
DTITLE=Oliver Serano-Alve - Reiki - Brightness Healing
DYEAR=2001
DGENRE=New Age
TTITLE0=Pachelbel Cha Om (Part 1)
TTITLE1=Licht - Prakash - Light
TTITLE2=Maha Maha Maha Deva
TTITLE3=Senzei Kentaka's Katsura Garden
TTITLE4=Higher And Higher
TTITLE5=Waves Of Symphony
TTITLE6=Infinite Longing
TTITLE7=Shakyamuni's Kyoto Gardens
TTITLE8=Cosmic Father
TTITLE9=Sangha Way Of Life
TTITLE10=Listening To The Heart
TTITLE11=Pachelbel Cha Om (Part 2)
EXTD=YEAR: 2001
EXTT0=
EXTT1=
EXTT2=
EXTT3=
EXTT4=
EXTT5=
EXTT6=
EXTT7=
EXTT8=
EXTT9=
EXTT10=
EXTT11=
PLAYORDER=
